<?xml version="1.0" encoding="UTF-8"?>
<svg xmlns="http://www.w3.org/2000/svg" xmlns:xlink="http://www.w3.org/1999/xlink" width="150pt" height="150pt" viewBox="0 0 150 150" version="1.1">
<g id="surface1166304">
<path style=" stroke:none;fill-rule:nonzero;fill:rgb(0%,87.843137%,82.745098%);fill-opacity:1;" d="M 27 12 C 18.75 12 12 18.75 12 27 L 12 123 C 12 131.25 18.75 138 27 138 L 77.496094 138 C 77.820312 138.054688 78.152344 138.054688 78.476562 138 L 95.496094 138 C 95.820312 138.054688 96.152344 138.054688 96.476562 138 L 123 138 C 131.25 138 138 131.25 138 123 L 138 27 C 138 18.75 131.25 12 123 12 Z M 27 18 L 123 18 C 128.003906 18 132 21.996094 132 27 L 132 123 C 132 128.003906 128.003906 132 123 132 L 99 132 L 99 90 L 110.460938 90 L 114.664062 69 L 99 69 L 99 63 C 99 61.328125 99.160156 61.195312 99.71875 60.832031 C 100.28125 60.46875 102.015625 60 105 60 L 114 60 L 114 43.109375 L 112.289062 42.292969 C 112.289062 42.292969 105.398438 39 96 39 C 89.25 39 83.703125 41.6875 80.15625 46.125 C 76.609375 50.5625 75 56.5 75 63 L 75 69 L 66 69 L 66 90 L 75 90 L 75 132 L 27 132 C 21.996094 132 18 128.003906 18 123 L 18 27 C 18 21.996094 21.996094 18 27 18 Z M 96 45 C 102.238281 45 106.160156 46.375 108 47.101562 L 108 54 L 105 54 C 101.546875 54 98.78125 54.285156 96.453125 55.796875 C 94.121094 57.3125 93 60.183594 93 63 L 93 75 L 107.335938 75 L 105.539062 84 L 93 84 L 93 132 L 81 132 L 81 84 L 72 84 L 72 75 L 81 75 L 81 63 C 81 57.5 82.390625 52.9375 84.84375 49.875 C 87.296875 46.8125 90.75 45 96 45 Z M 96 45 "/>
</g>
</svg>
