<?xml version="1.0" encoding="UTF-8"?>
<svg xmlns="http://www.w3.org/2000/svg" xmlns:xlink="http://www.w3.org/1999/xlink" width="150pt" height="150pt" viewBox="0 0 150 150" version="1.1">
<g id="surface1132710">
<path style=" stroke:none;fill-rule:nonzero;fill:rgb(0%,87.843137%,82.745098%);fill-opacity:1;" d="M 27 12 C 18.75 12 12 18.75 12 27 L 12 123 C 12 131.25 18.75 138 27 138 L 123 138 C 131.25 138 138 131.25 138 123 L 138 27 C 138 18.75 131.25 12 123 12 Z M 27 18 L 123 18 C 128.003906 18 132 21.996094 132 27 L 132 123 C 132 128.003906 128.003906 132 123 132 L 27 132 C 21.996094 132 18 128.003906 18 123 L 18 27 C 18 21.996094 21.996094 18 27 18 Z M 42 33.035156 C 38.714844 33.035156 35.757812 34.015625 33.570312 35.859375 C 31.378906 37.703125 30.035156 40.453125 30.035156 43.398438 C 30.035156 49 34.894531 53.367188 41.074219 53.800781 C 41.078125 53.804688 41.082031 53.804688 41.085938 53.804688 C 41.378906 53.90625 41.6875 53.960938 42 53.964844 C 48.820312 53.964844 53.964844 49.1875 53.964844 43.398438 C 53.964844 43.347656 53.960938 43.292969 53.960938 43.242188 C 53.652344 37.542969 48.570312 33.035156 42 33.035156 Z M 42 38.964844 C 46.175781 38.964844 47.824219 40.832031 48.007812 43.476562 C 47.96875 46.046875 46.378906 48.035156 42 48.035156 C 37.84375 48.035156 35.964844 45.90625 35.964844 43.402344 C 35.964844 42.148438 36.421875 41.203125 37.382812 40.394531 C 38.34375 39.585938 39.886719 38.964844 42 38.964844 Z M 33 57 C 31.34375 57 30 58.34375 30 60 L 30 117 C 30 118.65625 31.34375 120 33 120 L 51 120 C 52.65625 120 54 118.65625 54 117 L 54 60 C 54 58.34375 52.65625 57 51 57 Z M 60 57 C 58.34375 57 57 58.34375 57 60 L 57 117 C 57 118.65625 58.34375 120 60 120 L 78 120 C 79.65625 120 81 118.65625 81 117 L 81 87 C 81 84.511719 81.679688 82.035156 82.875 80.414062 C 84.070312 78.792969 85.578125 77.820312 88.445312 77.871094 C 91.40625 77.921875 92.96875 78.933594 94.152344 80.527344 C 95.339844 82.117188 96 84.5 96 87 L 96 117 C 96 118.65625 97.34375 120 99 120 L 117 120 C 118.65625 120 120 118.65625 120 117 L 120 84.785156 C 120 75.902344 117.367188 68.863281 112.855469 64.101562 C 108.347656 59.339844 102.074219 57 95.4375 57 C 89.132812 57 84.332031 59.113281 81 61.273438 L 81 60 C 81 58.34375 79.65625 57 78 57 Z M 36 63 L 48 63 L 48 114 L 36 114 Z M 63 63 L 75 63 L 75 67.679688 C 75 68.972656 75.824219 70.117188 77.046875 70.527344 C 78.273438 70.933594 79.621094 70.515625 80.394531 69.484375 C 80.394531 69.484375 85.109375 63 95.4375 63 C 100.699219 63 105.207031 64.746094 108.503906 68.226562 C 111.800781 71.707031 114 77.066406 114 84.785156 L 114 114 L 102 114 L 102 87 C 102 83.5 101.160156 79.882812 98.96875 76.941406 C 96.78125 73.996094 93.09375 71.949219 88.550781 71.871094 C 83.988281 71.789062 80.242188 73.882812 78.046875 76.859375 C 75.851562 79.832031 75 83.488281 75 87 L 75 114 L 63 114 Z M 63 63 "/>
</g>
</svg>
